<svg width="277" height="238" viewBox="0 0 277 238" fill="none" xmlns="http://www.w3.org/2000/svg">
<path d="M40.8392 42.3229C23.7456 44.1582 22.2549 45.6489 20.4196 62.7426C18.5844 45.6489 17.0937 44.1582 0 42.3229C17.0937 40.4877 18.5844 38.997 20.4196 21.9033C22.2549 38.997 23.7456 40.4877 40.8392 42.3229Z" fill="url(#paint0_linear_21_158)"/>
<path d="M54.614 9.59103C46.5839 10.4559 45.8878 11.152 45.0229 19.1821C44.158 11.152 43.4619 10.4559 35.4319 9.59103C43.4619 8.72615 44.158 8.03003 45.0229 0C45.8878 8.03003 46.5839 8.72615 54.614 9.59103Z" fill="url(#paint1_linear_21_158)"/>
<path d="M258.521 219.345H72.0369C69.8641 219.345 68.0922 217.573 68.0922 215.401V82.3917C68.0922 80.219 69.8641 78.447 72.0369 78.447H258.521C260.693 78.447 262.465 80.219 262.465 82.3917V215.393C262.465 217.573 260.693 219.338 258.521 219.338V219.345ZM72.0369 78.8549C70.0892 78.8549 68.5 80.437 68.5 82.3917V215.393C68.5 217.341 70.0821 218.93 72.0369 218.93H258.521C260.468 218.93 262.058 217.341 262.058 215.393V82.3917C262.058 80.444 260.475 78.8549 258.521 78.8549H72.0369Z" fill="#FDFEFE"/>
<path d="M256.046 222.643H69.5618C67.389 222.643 65.6171 220.871 65.6171 218.698V85.6895C65.6171 83.5167 67.389 81.7448 69.5618 81.7448H256.046C258.218 81.7448 259.99 83.5167 259.99 85.6895V218.691C259.99 220.864 258.218 222.636 256.046 222.636V222.643ZM69.5618 82.1526C67.6141 82.1526 66.0249 83.7347 66.0249 85.6895V218.691C66.0249 220.639 67.607 222.228 69.5618 222.228H256.046C257.993 222.228 259.582 220.646 259.582 218.691V85.6895C259.582 83.7417 258 82.1526 256.046 82.1526H69.5618Z" fill="#FDFEFE"/>
<path d="M253.57 225.941H67.0937C64.921 225.941 63.149 224.169 63.149 221.996V88.9873C63.149 86.8146 64.921 85.0426 67.0937 85.0426H253.577C255.75 85.0426 257.522 86.8146 257.522 88.9873V221.989C257.522 224.162 255.75 225.934 253.577 225.934L253.57 225.941ZM67.0937 85.4504C65.146 85.4504 63.5568 87.0325 63.5568 88.9873V221.989C63.5568 223.937 65.1389 225.526 67.0937 225.526H253.577C255.525 225.526 257.114 223.944 257.114 221.989V88.9873C257.114 87.0396 255.532 85.4504 253.577 85.4504H67.0937Z" fill="#FDFEFE"/>
<path d="M257.318 101.503H63.3529V101.918H257.318V101.503Z" fill="#FDFEFE"/>
<path d="M243.093 95.6038C244.41 95.6038 245.477 94.5366 245.477 93.2201C245.477 91.9036 244.41 90.8364 243.093 90.8364C241.777 90.8364 240.71 91.9036 240.71 93.2201C240.71 94.5366 241.777 95.6038 243.093 95.6038Z" fill="url(#paint2_linear_21_158)"/>
<path d="M235.014 95.6038C236.331 95.6038 237.398 94.5366 237.398 93.2201C237.398 91.9036 236.331 90.8364 235.014 90.8364C233.698 90.8364 232.631 91.9036 232.631 93.2201C232.631 94.5366 233.698 95.6038 235.014 95.6038Z" fill="url(#paint3_linear_21_158)"/>
<path d="M226.935 95.6039C228.251 95.6039 229.319 94.5367 229.319 93.2202C229.319 91.9038 228.251 90.8365 226.935 90.8365C225.618 90.8365 224.551 91.9038 224.551 93.2202C224.551 94.5367 225.618 95.6039 226.935 95.6039Z" fill="url(#paint4_linear_21_158)"/>
<path d="M82.9428 194.207C74.0761 195.677 65.1038 196.612 56.0964 196.64C51.5962 196.64 47.089 196.401 42.6169 195.811C40.3809 195.508 38.1589 195.1 35.958 194.601C33.7571 194.074 31.5844 193.434 29.4609 192.639C25.2279 191.05 21.1707 188.737 17.9643 185.446C16.3681 183.801 15.011 181.909 14.0055 179.842C13.7383 179.329 13.5696 178.78 13.3516 178.246C13.1617 177.704 12.8875 177.184 12.768 176.622L12.3601 174.948C12.2968 174.667 12.2054 174.393 12.1703 174.104L12.0718 173.246C11.4812 168.676 12.2195 164.049 13.6328 159.732C15.0532 155.4 17.1205 151.329 19.4761 147.462C20.6292 145.507 21.9441 143.665 23.2309 141.801C24.588 139.994 25.931 138.166 27.3866 136.443C28.7858 134.664 30.3328 133.019 31.8164 131.31L34.1439 128.849C34.9173 128.026 35.6978 127.211 36.5065 126.423C42.8982 120.046 49.7188 114.125 56.8698 108.626C71.158 97.6221 86.5078 88.0662 102.434 79.6424C118.396 71.2819 134.927 64.0253 151.936 58.0625C160.438 55.0882 169.065 52.4514 177.798 50.2224C186.532 47.9863 195.377 46.1933 204.307 44.9628C206.536 44.6253 208.787 44.4284 211.023 44.1471C213.273 43.9713 215.516 43.7112 217.766 43.6197C222.266 43.3104 226.787 43.3033 231.295 43.444C235.809 43.6268 240.309 44.112 244.753 44.9698C249.183 45.8417 253.578 47.1215 257.642 49.1606C261.685 51.1927 265.412 54.0686 267.978 57.8516C270.622 61.5994 271.691 66.2684 271.571 70.7686C271.424 75.3109 270.144 79.7127 268.393 83.8543C266.593 87.9818 264.322 91.8843 261.776 95.5899C264.265 91.8492 266.48 87.9185 268.21 83.7769C269.898 79.6283 271.093 75.2336 271.17 70.7615C271.22 66.3246 270.102 61.7963 267.479 58.1961C264.926 54.5608 261.27 51.8185 257.283 49.8849C253.282 47.9371 248.958 46.6996 244.577 45.8839C240.189 45.0753 235.731 44.6253 231.259 44.4846C226.787 44.3862 222.308 44.4213 217.843 44.7729C215.607 44.8854 213.385 45.1667 211.149 45.3565C208.927 45.6519 206.698 45.8698 204.483 46.2214C186.75 48.8653 169.347 53.5131 152.436 59.4759C135.525 65.4527 119.071 72.7374 103.208 81.0979C87.3376 89.4373 72.0299 98.9159 57.791 109.815C50.668 115.257 43.8755 121.121 37.5261 127.429C36.7174 128.202 35.944 129.011 35.1775 129.827L32.8712 132.259C31.3945 133.94 29.8687 135.578 28.4694 137.315C27.0139 139.01 25.6779 140.803 24.3208 142.575C23.0411 144.396 21.7262 146.21 20.58 148.116C18.2315 151.899 16.1712 155.878 14.7579 160.083C13.3445 164.274 12.5992 168.732 13.1336 173.106L13.218 173.928C13.2461 174.203 13.3375 174.463 13.3867 174.73L13.7664 176.333C13.8719 176.875 14.1321 177.367 14.3079 177.88C14.5118 178.386 14.6735 178.921 14.9196 179.406C15.8618 181.389 17.1416 183.203 18.6604 184.792C21.7121 187.985 25.6427 190.263 29.7843 191.88C31.8586 192.696 33.9892 193.357 36.1549 193.912C38.3276 194.439 40.5215 194.875 42.7364 195.213C47.1663 195.867 51.6524 196.176 56.1386 196.24C65.1179 196.345 74.0972 195.543 82.978 194.207H82.9428Z" fill="url(#paint5_linear_21_158)"/>
<mask id="mask0_21_158" style="mask-type:luminance" maskUnits="userSpaceOnUse" x="11" y="43" width="261" height="154">
<path d="M82.9428 194.207C74.0761 195.677 65.1038 196.612 56.0964 196.64C51.5962 196.64 47.089 196.401 42.6169 195.811C40.3809 195.508 38.1589 195.1 35.958 194.601C33.7571 194.074 31.5844 193.434 29.4609 192.639C25.2279 191.05 21.1707 188.737 17.9643 185.446C16.3681 183.801 15.011 181.909 14.0055 179.842C13.7383 179.329 13.5696 178.78 13.3516 178.246C13.1617 177.704 12.8875 177.184 12.768 176.622L12.3601 174.948C12.2968 174.667 12.2054 174.393 12.1703 174.104L12.0718 173.246C11.4812 168.676 12.2195 164.049 13.6328 159.732C15.0532 155.4 17.1205 151.329 19.4761 147.462C20.6292 145.507 21.9441 143.665 23.2309 141.801C24.588 139.994 25.931 138.166 27.3866 136.443C28.7858 134.664 30.3328 133.019 31.8164 131.31L34.1439 128.849C34.9173 128.026 35.6978 127.211 36.5065 126.423C42.8982 120.046 49.7188 114.125 56.8698 108.626C71.158 97.6221 86.5078 88.0662 102.434 79.6424C118.396 71.2819 134.927 64.0253 151.936 58.0625C160.438 55.0882 169.065 52.4514 177.798 50.2224C186.532 47.9863 195.377 46.1933 204.307 44.9628C206.536 44.6253 208.787 44.4284 211.023 44.1471C213.273 43.9713 215.516 43.7112 217.766 43.6197C222.266 43.3104 226.787 43.3033 231.295 43.444C235.809 43.6268 240.309 44.112 244.753 44.9698C249.183 45.8417 253.578 47.1215 257.642 49.1606C261.685 51.1927 265.412 54.0686 267.978 57.8516C270.622 61.5994 271.691 66.2684 271.571 70.7686C271.424 75.3109 270.144 79.7127 268.393 83.8543C266.593 87.9818 264.322 91.8843 261.776 95.5899C264.265 91.8492 266.48 87.9185 268.21 83.7769C269.898 79.6283 271.093 75.2336 271.17 70.7615C271.22 66.3246 270.102 61.7963 267.479 58.1961C264.926 54.5608 261.27 51.8185 257.283 49.8849C253.282 47.9371 248.958 46.6996 244.577 45.8839C240.189 45.0753 235.731 44.6253 231.259 44.4846C226.787 44.3862 222.308 44.4213 217.843 44.7729C215.607 44.8854 213.385 45.1667 211.149 45.3565C208.927 45.6519 206.698 45.8698 204.483 46.2214C186.75 48.8653 169.347 53.5131 152.436 59.4759C135.525 65.4527 119.071 72.7374 103.208 81.0979C87.3376 89.4373 72.0299 98.9159 57.791 109.815C50.668 115.257 43.8755 121.121 37.5261 127.429C36.7174 128.202 35.944 129.011 35.1775 129.827L32.8712 132.259C31.3945 133.94 29.8687 135.578 28.4694 137.315C27.0139 139.01 25.6779 140.803 24.3208 142.575C23.0411 144.396 21.7262 146.21 20.58 148.116C18.2315 151.899 16.1712 155.878 14.7579 160.083C13.3445 164.274 12.5992 168.732 13.1336 173.106L13.218 173.928C13.2461 174.203 13.3375 174.463 13.3867 174.73L13.7664 176.333C13.8719 176.875 14.1321 177.367 14.3079 177.88C14.5118 178.386 14.6735 178.921 14.9196 179.406C15.8618 181.389 17.1416 183.203 18.6604 184.792C21.7121 187.985 25.6427 190.263 29.7843 191.88C31.8586 192.696 33.9892 193.357 36.1549 193.912C38.3276 194.439 40.5215 194.875 42.7364 195.213C47.1663 195.867 51.6524 196.176 56.1386 196.24C65.1179 196.345 74.0972 195.543 82.978 194.207H82.9428Z" fill="white"/>
</mask>
<g mask="url(#mask0_21_158)">
<path d="M271.677 63.8779L262.135 43.3176H271.677V63.8779Z" fill="url(#paint6_linear_21_158)"/>
<path d="M271.677 108.416L160.388 160.077L118.34 69.4891L174.719 43.3176H262.135L271.677 63.8779V108.416Z" fill="url(#paint7_linear_21_158)"/>
<path d="M160.388 160.076L81.5998 196.648H21.4238L11.4741 175.215V119.097L118.34 69.489L160.388 160.076Z" fill="url(#paint8_linear_21_158)"/>
<path d="M11.4741 175.215L21.4238 196.648H11.4741V175.215Z" fill="url(#paint9_linear_21_158)"/>
</g>
<path d="M73.2252 189.742C73.6542 190.692 74.3503 191.472 75.173 192.049C75.9816 192.646 76.9379 193.019 77.9082 193.23C78.8856 193.462 79.8982 193.511 80.9037 193.504C81.41 193.469 81.9162 193.455 82.4155 193.406L83.9272 193.195L84.1241 193.989C83.2311 194.278 82.3311 194.65 81.4592 195.044C80.5873 195.438 79.7435 195.895 78.9419 196.408C78.1473 196.929 77.3949 197.533 76.8395 198.286C76.2629 199.024 75.9605 199.98 76.1293 200.958C75.7777 200.029 75.9957 198.933 76.516 198.075C77.0434 197.203 77.8028 196.514 78.5833 195.909C79.3708 195.297 80.2427 194.805 81.1217 194.355C82.0076 193.912 82.9147 193.539 83.871 193.209L84.0679 194.003L82.4998 194.214C81.9725 194.257 81.4381 194.271 80.9107 194.299C79.849 194.25 78.7731 194.193 77.7465 193.856C76.7199 193.553 75.7285 193.075 74.9128 192.372C74.1253 191.655 73.4643 190.762 73.2182 189.742H73.2252Z" fill="url(#paint10_linear_21_158)"/>
<path d="M275.748 137.821V159.823C275.748 169.934 257.375 178.204 257.375 178.204C257.375 178.204 238.994 169.927 238.994 159.823V137.821C240.211 137.807 241.448 137.688 242.686 137.456C247.861 136.471 252.22 133.645 255.216 129.784C256.306 128.385 258.443 128.385 259.526 129.784C262.522 133.645 266.874 136.471 272.049 137.456C273.294 137.688 274.525 137.807 275.741 137.821H275.748Z" fill="url(#paint11_linear_21_158)"/>
<path d="M257.867 176.024L257.825 176.003C257.642 175.918 239.381 167.586 239.381 157.531V135.424H239.479C240.71 135.41 241.947 135.283 243.157 135.058C248.114 134.116 252.537 131.409 255.624 127.422C256.158 126.726 256.974 126.332 257.86 126.332C258.746 126.332 259.561 126.733 260.096 127.422C263.183 131.402 267.605 134.116 272.556 135.058C273.772 135.283 275.003 135.41 276.233 135.424H276.332V157.531C276.332 167.586 258.078 175.925 257.895 176.003L257.853 176.024H257.867ZM239.592 135.628V157.531C239.592 167.22 256.882 175.342 257.867 175.799C258.851 175.342 276.142 167.22 276.142 157.531V135.628C274.939 135.607 273.723 135.487 272.528 135.262C267.528 134.313 263.056 131.57 259.941 127.555C259.442 126.916 258.682 126.543 257.867 126.543C257.044 126.543 256.292 126.909 255.792 127.555C252.677 131.577 248.205 134.313 243.199 135.262C242.011 135.487 240.801 135.607 239.592 135.628Z" fill="#FDFEFE"/>
<path d="M256.981 158.747L251.763 153.537L252.931 152.37L256.981 156.42L264.617 148.777L265.784 149.937L256.981 158.747Z" fill="#FDFEFE"/>
<g opacity="0.05">
<path d="M114.001 228.971C107.673 228.971 102.033 224.471 100.817 218.03L90.2345 161.736C88.8633 154.465 93.6729 147.433 100.944 146.069L189.499 129.418C193.022 128.758 196.594 129.503 199.547 131.528C202.507 133.553 204.497 136.605 205.165 140.128L215.748 196.422C216.409 199.945 215.663 203.517 213.638 206.47C211.613 209.431 208.561 211.42 205.039 212.088L116.483 228.739C115.646 228.894 114.817 228.971 114.001 228.971ZM192.002 130.009C191.222 130.009 190.434 130.079 189.647 130.227L101.091 146.878C94.2635 148.165 89.7563 154.76 91.0431 161.581L101.626 217.875C102.244 221.18 104.122 224.049 106.899 225.948C109.677 227.846 113.024 228.549 116.336 227.924L204.891 211.273C208.196 210.654 211.065 208.777 212.963 205.999C214.862 203.222 215.565 199.875 214.939 196.563L204.357 140.268C203.738 136.963 201.86 134.094 199.083 132.196C196.966 130.747 194.512 129.995 192.002 129.995V130.009Z" fill="url(#paint12_linear_21_158)"/>
</g>
<g opacity="0.15">
<path d="M115.864 230.265C113.192 230.265 110.577 229.463 108.32 227.924C105.359 225.898 103.369 222.847 102.701 219.324L92.1189 163.029C91.458 159.507 92.2033 155.935 94.2284 152.981C96.2535 150.021 99.3052 148.031 102.828 147.363L191.383 130.712C194.906 130.051 198.478 130.797 201.431 132.822C204.392 134.847 206.382 137.899 207.05 141.421L217.632 197.716C218.293 201.239 217.548 204.811 215.523 207.764C213.498 210.724 210.446 212.714 206.923 213.382L118.368 230.033C117.531 230.188 116.694 230.265 115.857 230.265H115.864ZM193.894 131.303C193.113 131.303 192.326 131.373 191.538 131.521L102.983 148.172C99.6778 148.79 96.809 150.668 94.9104 153.445C93.0119 156.223 92.3088 159.57 92.9346 162.882L103.517 219.176C104.136 222.481 106.013 225.35 108.791 227.248C111.568 229.147 114.915 229.85 118.227 229.224L206.782 212.574C210.087 211.955 212.956 210.077 214.855 207.3C216.753 204.523 217.456 201.175 216.831 197.864L206.248 141.569C205.629 138.264 203.752 135.395 200.974 133.497C198.858 132.048 196.404 131.296 193.894 131.296V131.303Z" fill="url(#paint13_linear_21_158)"/>
</g>
<g opacity="0.38">
<path d="M117.777 231.552C111.456 231.552 105.802 227.052 104.593 220.611L94.0104 164.316C92.6393 157.045 97.4489 150.014 104.719 148.65L193.275 131.999C200.545 130.635 207.577 135.437 208.941 142.708L219.524 199.003C220.185 202.525 219.439 206.098 217.414 209.051C215.389 212.011 212.337 214.001 208.815 214.669L120.259 231.32C119.422 231.474 118.593 231.552 117.777 231.552ZM195.757 132.59C194.991 132.59 194.21 132.66 193.422 132.808L104.867 149.458C98.0395 150.745 93.5323 157.341 94.8191 164.161L105.402 220.456C106.688 227.284 113.284 231.791 120.105 230.504L208.66 213.853C211.965 213.235 214.834 211.357 216.732 208.58C218.631 205.802 219.334 202.455 218.708 199.143L208.125 142.849C206.986 136.809 201.692 132.583 195.75 132.583L195.757 132.59Z" fill="url(#paint14_linear_21_158)"/>
</g>
<g opacity="0.5">
<path d="M119.64 232.846C116.968 232.846 114.353 232.044 112.096 230.504C109.135 228.479 107.145 225.427 106.477 221.905L95.8949 165.61C94.5237 158.339 99.3333 151.308 106.604 149.944L195.159 133.293C198.682 132.632 202.254 133.377 205.207 135.402C208.168 137.428 210.158 140.479 210.826 144.002L221.408 200.297C222.779 207.567 217.97 214.599 210.699 215.963L122.144 232.614C121.307 232.768 120.47 232.846 119.633 232.846H119.64ZM197.663 133.877C196.882 133.877 196.094 133.947 195.307 134.095L106.752 150.745C99.924 152.032 95.4167 158.628 96.7035 165.448L107.286 221.743C107.905 225.048 109.782 227.917 112.56 229.815C115.337 231.714 118.684 232.417 121.996 231.791L210.551 215.14C217.379 213.853 221.886 207.258 220.599 200.437L210.017 144.143C209.398 140.838 207.521 137.969 204.743 136.07C202.627 134.622 200.173 133.87 197.663 133.87V133.877Z" fill="url(#paint15_linear_21_158)"/>
</g>
<g opacity="0.62">
<path d="M121.553 234.132C115.225 234.132 109.585 229.632 108.369 223.191L97.7863 166.897C97.1254 163.374 97.8707 159.802 99.8958 156.849C101.921 153.888 104.973 151.898 108.495 151.23L197.051 134.58C200.574 133.919 204.146 134.664 207.099 136.689C210.059 138.714 212.049 141.766 212.717 145.289L223.3 201.583C223.961 205.106 223.215 208.678 221.19 211.631C219.165 214.592 216.113 216.582 212.59 217.25L124.035 233.9C123.198 234.055 122.369 234.132 121.553 234.132ZM199.554 135.17C198.773 135.17 197.986 135.241 197.198 135.388L108.643 152.039C101.815 153.326 97.3082 159.921 98.595 166.742L109.177 223.037C109.796 226.341 111.674 229.21 114.451 231.109C117.229 233.007 120.576 233.71 123.887 233.085L212.443 216.434C215.748 215.815 218.617 213.938 220.515 211.16C222.414 208.383 223.117 205.036 222.491 201.724L211.908 145.429C211.29 142.124 209.412 139.256 206.635 137.357C204.518 135.909 202.064 135.156 199.554 135.156V135.17Z" fill="url(#paint16_linear_21_158)"/>
</g>
<g opacity="0.75">
<path d="M123.437 235.419C117.116 235.419 111.463 230.919 110.253 224.478L99.6708 168.183C99.0099 164.661 99.7552 161.089 101.78 158.135C103.805 155.175 106.857 153.185 110.38 152.517L198.935 135.866C202.458 135.205 206.03 135.951 208.983 137.976C211.944 140.001 213.934 143.053 214.602 146.575L225.191 202.87C226.555 210.141 221.753 217.172 214.482 218.536L125.927 235.187C125.09 235.342 124.26 235.419 123.444 235.419H123.437ZM201.438 136.457C200.658 136.457 199.87 136.527 199.083 136.675L110.528 153.326C107.223 153.944 104.354 155.822 102.455 158.599C100.557 161.377 99.8536 164.724 100.479 168.036L111.062 224.33C112.349 231.158 118.937 235.665 125.765 234.378L214.32 217.728C221.148 216.441 225.655 209.845 224.368 203.025L213.779 146.73C213.16 143.425 211.283 140.556 208.505 138.658C206.389 137.209 203.935 136.457 201.424 136.457H201.438Z" fill="url(#paint17_linear_21_158)"/>
</g>
<g opacity="0.88">
<path d="M125.322 236.706C118.994 236.706 113.354 232.206 112.138 225.765L101.555 169.47C100.184 162.2 104.994 155.168 112.264 153.804L200.82 137.153C208.09 135.789 215.122 140.592 216.486 147.862L227.068 204.157C228.44 211.428 223.63 218.459 216.359 219.823L127.804 236.474C126.967 236.629 126.138 236.706 125.322 236.706ZM203.302 137.751C202.535 137.751 201.755 137.821 200.967 137.969L112.412 154.62C105.584 155.906 101.077 162.502 102.364 169.323L112.946 225.617C113.565 228.922 115.443 231.791 118.22 233.689C120.998 235.588 124.345 236.291 127.656 235.665L216.212 219.015C223.039 217.728 227.547 211.132 226.26 204.312L215.677 148.017C214.538 141.977 209.243 137.751 203.302 137.751Z" fill="url(#paint18_linear_21_158)"/>
</g>
<path d="M127.206 238C120.878 238 115.232 233.5 114.022 227.059L103.44 170.764C102.076 163.493 106.878 156.462 114.149 155.098L202.704 138.447C206.227 137.786 209.799 138.531 212.752 140.557C215.712 142.582 217.702 145.633 218.37 149.156L228.96 205.451C230.324 212.721 225.521 219.753 218.251 221.117L129.696 237.768C128.859 237.922 128.029 238 127.213 238H127.206ZM205.207 139.038C204.427 139.038 203.639 139.108 202.852 139.256L114.296 155.906C107.469 157.193 102.962 163.789 104.248 170.609L114.831 226.904C116.118 233.732 122.713 238.232 129.534 236.952L218.089 220.301C224.917 219.022 229.424 212.419 228.137 205.598L217.548 149.304C216.929 145.999 215.052 143.13 212.274 141.232C210.158 139.783 207.704 139.031 205.193 139.031L205.207 139.038Z" fill="url(#paint19_linear_21_158)"/>
<path d="M127.206 238C120.878 238 115.232 233.5 114.022 227.059L103.44 170.764C102.076 163.493 106.878 156.462 114.149 155.098L202.704 138.447C206.227 137.786 209.799 138.531 212.752 140.557C215.713 142.582 217.703 145.633 218.371 149.156L228.96 205.451C230.324 212.721 225.522 219.753 218.251 221.117L129.696 237.768C128.859 237.922 128.029 238 127.213 238H127.206Z" fill="url(#paint20_linear_21_158)"/>
<path d="M169.557 185.495L173.889 199.27L163.187 201.281L162.217 186.866C160.381 186.023 158.975 184.335 158.574 182.197C157.913 178.689 160.22 175.321 163.721 174.66C167.23 173.999 170.598 176.305 171.259 179.807C171.66 181.937 170.957 184.026 169.557 185.481V185.495Z" fill="#0F0F0F"/>
<path d="M155.382 198.321V198.208L154.412 183.857C152.513 182.964 151.156 181.206 150.769 179.139C150.446 177.416 150.811 175.672 151.796 174.224C152.78 172.775 154.278 171.805 155.994 171.481C159.552 170.813 162.983 173.162 163.651 176.713C164.038 178.773 163.405 180.911 161.963 182.437L166.309 196.268L166.196 196.289L155.382 198.321ZM157.21 171.573C156.823 171.573 156.43 171.608 156.036 171.685C154.369 172.002 152.928 172.944 151.972 174.343C151.015 175.743 150.664 177.43 150.973 179.104C151.353 181.122 152.689 182.837 154.559 183.695L154.615 183.723V183.787L155.579 198.082L166.056 196.113L161.738 182.387L161.781 182.345C163.208 180.862 163.834 178.773 163.454 176.762C162.885 173.717 160.206 171.587 157.217 171.587L157.21 171.573Z" fill="#FDFEFE"/>
<path d="M109.445 153.698C108.587 153.86 107.757 153.291 107.595 152.433L99.6428 110.145C94.9738 85.3237 111.371 61.325 136.2 56.656C148.224 54.3919 160.409 56.9514 170.514 63.8563C180.618 70.7613 187.425 81.1891 189.689 93.2131L197.641 135.501C197.803 136.359 197.234 137.188 196.376 137.35L186.532 139.199C185.674 139.361 184.844 138.792 184.682 137.934L176.73 95.646C175.119 87.0815 170.268 79.6562 163.074 74.7412C156.268 70.0863 148.132 68.2089 140.025 69.3831C121.49 72.0622 109.255 89.9364 112.714 108.338L120.548 150C120.709 150.858 120.14 151.687 119.282 151.849L109.438 153.698H109.445Z" fill="url(#paint21_linear_21_158)"/>
<path d="M112.096 233.007C109.48 233.007 106.927 232.227 104.727 230.715C101.837 228.739 99.8888 225.758 99.2419 222.312L88.6524 166.025C87.3797 159.267 91.5775 152.658 98.2083 150.928L90.5509 110.173C85.875 85.2956 102.315 61.2477 127.192 56.5646C139.237 54.2934 151.451 56.86 161.584 63.779C171.702 70.6981 178.53 81.1469 180.801 93.199L188.458 133.933C195.328 133.061 201.692 137.695 202.978 144.515L213.568 200.817C214.215 204.255 213.484 207.743 211.508 210.633C209.532 213.523 206.543 215.478 203.105 216.125L114.55 232.775C113.734 232.93 112.911 233.007 112.103 233.007H112.096ZM135.771 55.9599C132.937 55.9599 130.075 56.2271 127.228 56.7615C102.462 61.4234 86.1 85.3659 90.7548 110.131L98.4544 151.076L98.363 151.097C91.7815 152.763 87.6117 159.303 88.8634 165.983L99.4529 222.27C100.093 225.659 102.005 228.599 104.853 230.539C107.701 232.487 111.132 233.204 114.521 232.571L203.077 215.921C206.466 215.281 209.398 213.368 211.346 210.52C213.294 207.673 214.011 204.241 213.378 200.859L202.789 144.557C201.516 137.807 195.194 133.237 188.402 134.151L188.304 134.165L188.282 134.066L180.604 93.2342C178.347 81.2313 171.547 70.8317 161.478 63.9407C153.786 58.6882 144.884 55.9529 135.785 55.9529L135.771 55.9599ZM111.196 148.657L111.174 148.558L103.623 108.359C101.935 99.3727 103.995 89.9715 109.29 82.5673C114.5 75.2756 122.221 70.5574 131.018 69.2847C139.146 68.1104 147.359 70.023 154.144 74.6639C161.366 79.6 166.232 87.0464 167.842 95.6319L175.527 136.549L175.429 136.57L111.203 148.657H111.196ZM135.701 69.1511C134.154 69.1511 132.6 69.2636 131.046 69.4886C122.305 70.7543 114.634 75.4443 109.459 82.6868C104.199 90.0419 102.146 99.3868 103.826 108.317L111.364 148.418L175.288 136.387L167.638 95.6741C166.035 87.1449 161.204 79.7477 154.032 74.8396C148.582 71.1129 142.212 69.1581 135.708 69.1581L135.701 69.1511Z" fill="#FDFEFE"/>
<defs>
<linearGradient id="paint0_linear_21_158" x1="0" y1="42.3229" x2="40.8392" y2="42.3229" gradientUnits="userSpaceOnUse">
<stop stop-color="#D5DA63"/>
<stop offset="1" stop-color="white"/>
</linearGradient>
<linearGradient id="paint1_linear_21_158" x1="35.4389" y1="9.59104" x2="54.614" y2="9.59104" gradientUnits="userSpaceOnUse">
<stop stop-color="#D5DA63"/>
<stop offset="1" stop-color="white"/>
</linearGradient>
<linearGradient id="paint2_linear_21_158" x1="240.71" y1="93.2201" x2="245.477" y2="93.2201" gradientUnits="userSpaceOnUse">
<stop stop-color="#D5DA63"/>
<stop offset="1" stop-color="white"/>
</linearGradient>
<linearGradient id="paint3_linear_21_158" x1="232.631" y1="93.2201" x2="237.398" y2="93.2201" gradientUnits="userSpaceOnUse">
<stop stop-color="#D5DA63"/>
<stop offset="1" stop-color="white"/>
</linearGradient>
<linearGradient id="paint4_linear_21_158" x1="224.551" y1="93.2202" x2="229.319" y2="93.2202" gradientUnits="userSpaceOnUse">
<stop stop-color="#D5DA63"/>
<stop offset="1" stop-color="white"/>
</linearGradient>
<linearGradient id="paint5_linear_21_158" x1="11.8679" y1="120.003" x2="271.571" y2="120.003" gradientUnits="userSpaceOnUse">
<stop stop-color="#D5DA63"/>
<stop offset="1" stop-color="white"/>
</linearGradient>
<linearGradient id="paint6_linear_21_158" x1="262.135" y1="53.5978" x2="271.677" y2="53.5978" gradientUnits="userSpaceOnUse">
<stop stop-color="#D5DA63"/>
<stop offset="1" stop-color="white"/>
</linearGradient>
<linearGradient id="paint7_linear_21_158" x1="118.34" y1="101.694" x2="271.677" y2="101.694" gradientUnits="userSpaceOnUse">
<stop stop-color="#D5DA63"/>
<stop offset="1" stop-color="white"/>
</linearGradient>
<linearGradient id="paint8_linear_21_158" x1="11.4741" y1="133.068" x2="160.388" y2="133.068" gradientUnits="userSpaceOnUse">
<stop stop-color="#D5DA63"/>
<stop offset="1" stop-color="white"/>
</linearGradient>
<linearGradient id="paint9_linear_21_158" x1="11.4741" y1="185.932" x2="21.4238" y2="185.932" gradientUnits="userSpaceOnUse">
<stop stop-color="#D5DA63"/>
<stop offset="1" stop-color="white"/>
</linearGradient>
<linearGradient id="paint10_linear_21_158" x1="73.2252" y1="195.346" x2="84.1312" y2="195.346" gradientUnits="userSpaceOnUse">
<stop stop-color="#D5DA63"/>
<stop offset="1" stop-color="white"/>
</linearGradient>
<linearGradient id="paint11_linear_21_158" x1="238.994" y1="153.467" x2="275.748" y2="153.467" gradientUnits="userSpaceOnUse">
<stop stop-color="#D5DA63"/>
<stop offset="1" stop-color="white"/>
</linearGradient>
<linearGradient id="paint12_linear_21_158" x1="90.2295" y1="156.297" x2="215.772" y2="201.862" gradientUnits="userSpaceOnUse">
<stop stop-color="#D5DA63"/>
<stop offset="1" stop-color="white"/>
</linearGradient>
<linearGradient id="paint13_linear_21_158" x1="90.8267" y1="162.517" x2="218.937" y2="198.226" gradientUnits="userSpaceOnUse">
<stop stop-color="#D5DA63"/>
<stop offset="1" stop-color="white"/>
</linearGradient>
<linearGradient id="paint14_linear_21_158" x1="92.1259" y1="168.855" x2="221.413" y2="194.462" gradientUnits="userSpaceOnUse">
<stop stop-color="#D5DA63"/>
<stop offset="1" stop-color="white"/>
</linearGradient>
<linearGradient id="paint15_linear_21_158" x1="94.1158" y1="175.214" x2="223.185" y2="190.68" gradientUnits="userSpaceOnUse">
<stop stop-color="#D5DA63"/>
<stop offset="1" stop-color="white"/>
</linearGradient>
<linearGradient id="paint16_linear_21_158" x1="96.7989" y1="181.492" x2="224.277" y2="186.976" gradientUnits="userSpaceOnUse">
<stop stop-color="#D5DA63"/>
<stop offset="1" stop-color="white"/>
</linearGradient>
<linearGradient id="paint17_linear_21_158" x1="100.158" y1="187.6" x2="224.694" y2="183.449" gradientUnits="userSpaceOnUse">
<stop stop-color="#D5DA63"/>
<stop offset="1" stop-color="white"/>
</linearGradient>
<linearGradient id="paint18_linear_21_158" x1="104.154" y1="193.438" x2="224.476" y2="180.199" gradientUnits="userSpaceOnUse">
<stop stop-color="#D5DA63"/>
<stop offset="1" stop-color="white"/>
</linearGradient>
<linearGradient id="paint19_linear_21_158" x1="108.731" y1="198.909" x2="223.666" y2="177.296" gradientUnits="userSpaceOnUse">
<stop stop-color="#D5DA63"/>
<stop offset="1" stop-color="white"/>
</linearGradient>
<linearGradient id="paint20_linear_21_158" x1="103.004" y1="171.256" x2="255.01" y2="179.757" gradientUnits="userSpaceOnUse">
<stop stop-color="white"/>
<stop offset="1" stop-color="#D5DA63"/>
</linearGradient>
<linearGradient id="paint21_linear_21_158" x1="99.2091" y1="109.034" x2="189.078" y2="92.1342" gradientUnits="userSpaceOnUse">
<stop stop-color="#D5DA63"/>
<stop offset="1" stop-color="white"/>
</linearGradient>
</defs>
</svg>
