<?xml version="1.0" encoding="UTF-8"?>
<!-- Created with Inkscape (http://www.inkscape.org/) -->
<svg width="669.86" height="449.45" version="1.1" xml:space="preserve" xmlns="http://www.w3.org/2000/svg" xmlns:cc="http://creativecommons.org/ns#" xmlns:dc="http://purl.org/dc/elements/1.1/" xmlns:rdf="http://www.w3.org/1999/02/22-rdf-syntax-ns#"><metadata><rdf:RDF><cc:Work rdf:about=""><dc:format>image/svg+xml</dc:format><dc:type rdf:resource="http://purl.org/dc/dcmitype/StillImage"/></cc:Work></rdf:RDF></metadata><defs><clipPath id="clipPath1273"><path d="m0 0h669.86v449.38h-669.86z"/></clipPath><clipPath id="clipPath1279"><path d="m0 0h669.86v449.38h-669.86z"/></clipPath></defs><path d="m319.18 318.91h57.842c47.876-49.616 106.35-77.195 173.91-79.782l9.6238-42.084c-98.929 0.155-186.65 48.042-241.38 121.87zm-87.609-179.98c55.092-24.208 106.68-60.018 147.32-102.88h-63.33c-67.184 58.184-152.8 95.475-247.02 101.89-8.805 0.6-17.691 0.9125-26.639 0.96375l-9.585 41.906h531.95l9.5762-41.878h-342.28" clip-path="url(#clipPath1279)" style="fill:#009841"/><path d="m662.3 422.82-0.03 0.14875-1.5325 7.5762h7.5575l1.5638-7.725zm-13.84-18.116h-25.941c1.5488-7.9838 7.7575-15.119 16.139-15.114 7.0688 0.0188 10.028 4.6675 10.051 11.891 0 0.97875-0.1575 2.055-0.24875 3.2225zm-9.8025-20.214c-14.49 6e-3 -23.268 13.69-23.291 28.715 0.0187 12.082 8.0762 18.371 18.566 18.39h0.02c7.27 0 10.724-1.4138 13.344-2.3738l0.115-0.0425 0.47-5.7688-0.285 0.12375c-3.4938 1.485-7.4862 2.9612-12.964 2.9612-7.7988-0.0162-13.365-4.8038-13.379-13.29 0-1.1575 0.08-2.3175 0.23875-3.3988h32.474l0.0163-0.17125c0.26125-2.795 0.61375-5.6025 0.61375-8.3312 0-5.105-1.3212-9.3125-3.9862-12.245-2.665-2.935-6.665-4.5712-11.952-4.5688zm-30.548-19.804-14.05 65.858h6.16l14.082-66.006h-6.1638zm-20.298-1e-3 -14.051 65.86h6.1625l14.08-66.008h-6.16zm-44.878 61.811c-4.3925-0.0113-8.4762-2.7362-8.4762-7.6912 5e-3 -4.8112 2.9362-7.4638 6.8462-8.9675 3.9088-1.4975 8.7712-1.7825 12.481-1.7825 1.7525 0 3.4388 0.16125 5.21 0.17375-1.2712 9.2612-5.9538 18.272-16.061 18.268zm8.575-42.006c-5.2888 2e-3 -10.384 1.6712-13.551 2.9888l-0.1 0.0437-0.6625 6.05 0.30875-0.15125c2.9662-1.485 8.0238-3.8312 13.13-3.8312 6.0475 0.0213 9.3288 3.39 9.35 9.44 0 1.7488-0.08 3.0125-0.23875 4.2588-1.71-0.16875-3.6688-0.33375-5.8725-0.33375-10.939 0.015-25.802 2.7062-25.829 15.939 0.0137 7.4562 5.9588 12.689 12.964 12.702h0.0263c6.4238 0 11.329-1.9538 15.076-7.2925-0.35875 1.8188-0.525 3.8938-0.7625 6.0338l-0.0237 0.20625h5.9l0.01-0.17625c0.175-3.0488 0.78375-7.1525 1.6575-10.554l-0.18125-0.0437 0.185 0.0337 2.3625-12.075c0.7875-3.5088 1.14-6.7525 1.14-8.5238 0-4.6712-1.2788-8.36-3.7962-10.875-2.5162-2.5162-6.2475-3.84-11.092-3.84zm-55.832-11.212-6.7175 2.3325-0.0225 0.1025-2.0688 9.8275h-8.7425l-1.325 5.1012h8.9362l-4.2375 19.549c-0.4375 1.93-2.0175 9.0112-2.0175 12.905 0.0113 4.915 3.6188 8.4925 9.9012 8.5 2.2988 0 4-0.445 5.6812-1.2425l0.0925-0.0437 0.57625-5.1912-0.31625 0.17625c-1.55 0.86-2.9975 1.2-4.6325 1.2-3.1562-0.0213-4.865-1.8038-4.8888-5.2362 0-2.8588 0.695-5.7338 1.3088-8.7138l4.6938-21.902h11.459l1.2275-5.1012h-11.644zm-52.581 52.168c-8.1125-0.01-11.695-5.9038-11.714-13.288 0.0187-9.7512 5.765-22.545 16.439-22.566 8.0212 7e-3 11.871 6.0775 11.89 13.989-2e-3 10.189-5.66 21.844-16.615 21.865zm21.349-39.769c-0.83 2.8988-1.5012 5.795-2.0175 8.6212-1.5925-7.0062-7.6362-9.8175-14.516-9.8075-15.014 2e-3 -22.918 13.519-22.941 27.668 0.0163 9.685 5.4025 18.37 16.114 18.388 5.8738 4e-3 10.928-2.0375 14.864-6.2762l-0.6075 2.8112c-2.6538 11.101-5.9362 17.241-18.63 17.268-4.7912-2e-3 -9.2088-0.955-13.55-3.82l-0.22125-0.14375-0.0625 0.25125-1.53 5.7538 0.1475 0.0663c5.3625 2.3775 10.039 2.9938 15.216 2.9912h0.10125c18.101 1e-3 21.475-8.4075 24.758-23.862l6.6525-30.716c0.8725-3.8462 1.66-7.26 2.0975-9.0962l0.055-0.23125h-5.8925zm-50.571 19.029h-25.938c1.5475-7.985 7.7562-15.12 16.138-15.115 7.07 0.0188 10.028 4.6675 10.051 11.89 0 0.98-0.15875 2.0575-0.25125 3.225zm-9.8-20.214c-14.489 5e-3 -23.266 13.688-23.29 28.714 0.0175 12.082 8.0762 18.372 18.564 18.391 7.285 0 10.744-1.4125 13.366-2.3762l0.1125-0.0425 0.47-5.765-0.28375 0.1225c-3.4938 1.4838-7.4875 2.9588-12.962 2.9588-7.8-0.0125-13.365-4.8025-13.379-13.289 0-1.1575 0.08-2.3175 0.23625-3.4h32.474l0.0163-0.17c0.26375-2.7962 0.615-5.6012 0.615-8.33 0-5.1075-1.32-9.315-3.9862-12.246-2.6662-2.9338-6.6662-4.57-11.952-4.5675zm-29.338 1.05-19.251 38.412-4.27-38.412h-6.8388l-20.909 38.415-3.3125-38.415h-6.0675l0.0238 0.20625 4.6512 44.796h6.8475l20.829-38.43 4.53 38.43h7.0188l23.385-45.002zm-74.435 19.164h-25.941c1.55-7.985 7.7575-15.12 16.139-15.114 7.0688 0.0175 10.026 4.6662 10.05 11.889 0 0.98125-0.1575 2.0575-0.2475 3.225zm-9.8025-20.215c-14.489 5e-3 -23.268 13.691-23.291 28.715 0.0188 12.082 8.0762 18.372 18.565 18.39h0.02c7.2712 0 10.726-1.4138 13.346-2.3738l0.11375-0.0413 0.47-5.7675-0.285 0.12125c-3.495 1.485-7.4875 2.96-12.965 2.96-7.7975-0.0125-13.364-4.8038-13.376-13.289 0-1.1588 0.08-2.3175 0.2375-3.3988h32.471l0.0188-0.17c0.2625-2.7975 0.61375-5.6025 0.61375-8.33 0-5.1088-1.3225-9.3162-3.9888-12.248-2.6638-2.9338-6.6638-4.5688-11.95-4.5688zm-52.066 11.289h-7.5525l4.5562-21.064h6.0612c7.8175 0.0263 13.634 0.66875 13.64 8.3012 8e-3 9.3838-8.8562 12.665-16.705 12.762zm12.415 15.326c-0.0175 9.4838-8.3338 13.799-18.8 13.814h-7.4662l5.1675-23.514h10.262c6.1588 0.0213 10.824 2.9838 10.836 9.7zm-9.4375-42.016h-11.178l-0.0312 0.14875-13.176 61.308h15.634c14.06-0.02 24.58-7.5825 24.602-19.44 0.0175-6.91-3.5062-11.425-10.044-12.588 7.74-1.075 14.334-7.17 14.334-15.764 0-11.976-10.351-13.652-20.141-13.665" clip-path="url(#clipPath1273)" style="fill:#231f20"/><path d="m64.545 211.41-62.932 106.12h30.573l12.615-22.995h41.003l2.6103 22.995h28.634l-17.089-106.12zm-8.4846 63.47 22.373-42.256 4.3975 42.256zm71.416-63.47 13.705 106.12h34.926l58.192-106.12h-30.408l-40.781 80.11-7.4132-80.11zm205.84 2.6616c-11.278-3.7262-23.488-5.4939-35.376-5.4939-43.226 0-69.933 23.159-69.933 60.398 0 32.353 19.294 49.93 54.929 49.93 11.095 0 22.823-1.3751 30.395-3.5552l4.7583-1.3298 12.59-58.624h-44.056l-4.3533 19.877h16.747l-4.315 21.264c-4.1312 1.1018-8.3004 1.7681-12.432 1.7681-15.391 0-25.592-10.955-25.592-27.6 0-25.39 16.5-41.098 43.391-41.098 9.9801 0 16.5 1.508 26.987 6.2606l6.2599-21.797z" style="fill:#231f20"/></svg>
